<svg width="142" height="30" viewBox="0 0 142 30" fill="none" xmlns="http://www.w3.org/2000/svg">
<g clip-path="url(#clip0_1516_3700)">
<path d="M8.544 25.288C7.216 25.288 6.032 25.008 4.992 24.448C3.968 23.888 3.16 23.12 2.568 22.144C1.992 21.168 1.704 20.056 1.704 18.808V7.12H4.536V18.688C4.536 19.472 4.704 20.168 5.04 20.776C5.392 21.384 5.864 21.856 6.456 22.192C7.064 22.528 7.76 22.696 8.544 22.696C9.344 22.696 10.04 22.528 10.632 22.192C11.24 21.856 11.712 21.384 12.048 20.776C12.4 20.168 12.576 19.472 12.576 18.688V7.12H15.384V18.808C15.384 20.056 15.096 21.168 14.52 22.144C13.944 23.12 13.136 23.888 12.096 24.448C11.072 25.008 9.888 25.288 8.544 25.288ZM18.9339 25V7.12H25.4379C26.6379 7.12 27.6939 7.344 28.6059 7.792C29.5339 8.224 30.2539 8.864 30.7659 9.712C31.2779 10.544 31.5339 11.544 31.5339 12.712C31.5339 13.864 31.2699 14.856 30.7419 15.688C30.2299 16.52 29.5179 17.16 28.6059 17.608C27.6939 18.056 26.6379 18.28 25.4379 18.28H21.7659V25H18.9339ZM21.7659 15.76H25.5099C26.1499 15.76 26.7099 15.632 27.1899 15.376C27.6699 15.12 28.0459 14.768 28.3179 14.32C28.5899 13.856 28.7259 13.312 28.7259 12.688C28.7259 12.064 28.5899 11.528 28.3179 11.08C28.0459 10.616 27.6699 10.264 27.1899 10.024C26.7099 9.768 26.1499 9.64 25.5099 9.64H21.7659V15.76ZM34.4496 25V7.12H37.2816V25H34.4496ZM49.4126 25.288C48.1486 25.288 46.9886 25.064 45.9326 24.616C44.8766 24.152 43.9566 23.512 43.1726 22.696C42.4046 21.864 41.8046 20.888 41.3726 19.768C40.9406 18.648 40.7246 17.416 40.7246 16.072C40.7246 14.728 40.9406 13.496 41.3726 12.376C41.8046 11.256 42.4046 10.28 43.1726 9.448C43.9566 8.616 44.8766 7.976 45.9326 7.528C46.9886 7.064 48.1486 6.832 49.4126 6.832C50.6286 6.832 51.7166 7.048 52.6766 7.48C53.6526 7.912 54.4686 8.472 55.1246 9.16C55.7966 9.832 56.2766 10.544 56.5646 11.296L54.8366 12.136C54.3886 11.048 53.7006 10.192 52.7726 9.568C51.8446 8.944 50.7246 8.632 49.4126 8.632C48.1006 8.632 46.9326 8.944 45.9086 9.568C44.8846 10.192 44.0846 11.064 43.5086 12.184C42.9326 13.288 42.6446 14.584 42.6446 16.072C42.6446 17.544 42.9326 18.84 43.5086 19.96C44.0846 21.08 44.8846 21.952 45.9086 22.576C46.9326 23.184 48.1006 23.488 49.4126 23.488C50.5806 23.488 51.6286 23.232 52.5566 22.72C53.5006 22.208 54.2446 21.512 54.7886 20.632C55.3326 19.736 55.6046 18.712 55.6046 17.56V16.576L56.4686 17.44H49.4126V15.76H57.5246V17.248C57.5246 18.416 57.3166 19.496 56.9006 20.488C56.4846 21.464 55.9086 22.312 55.1726 23.032C54.4366 23.752 53.5726 24.312 52.5806 24.712C51.6046 25.096 50.5486 25.288 49.4126 25.288ZM64.4196 25.288C63.6036 25.288 62.8756 25.136 62.2356 24.832C61.5956 24.512 61.0916 24.08 60.7236 23.536C60.3556 22.992 60.1716 22.368 60.1716 21.664C60.1716 20.992 60.3156 20.384 60.6036 19.84C60.8916 19.28 61.3396 18.808 61.9476 18.424C62.5556 18.04 63.3316 17.768 64.2756 17.608L69.3156 16.768V18.4L64.7076 19.168C63.7796 19.328 63.1076 19.624 62.6916 20.056C62.2916 20.488 62.0916 21 62.0916 21.592C62.0916 22.168 62.3156 22.656 62.7636 23.056C63.2276 23.456 63.8196 23.656 64.5396 23.656C65.4196 23.656 66.1876 23.472 66.8436 23.104C67.4996 22.72 68.0116 22.208 68.3796 21.568C68.7476 20.928 68.9316 20.216 68.9316 19.432V16.168C68.9316 15.4 68.6516 14.776 68.0916 14.296C67.5316 13.816 66.8036 13.576 65.9076 13.576C65.1236 13.576 64.4356 13.776 63.8436 14.176C63.2516 14.56 62.8116 15.064 62.5236 15.688L60.8916 14.8C61.1316 14.256 61.5076 13.76 62.0196 13.312C62.5476 12.864 63.1476 12.512 63.8196 12.256C64.4916 11.984 65.1876 11.848 65.9076 11.848C66.8516 11.848 67.6836 12.032 68.4036 12.4C69.1396 12.768 69.7076 13.28 70.1076 13.936C70.5236 14.576 70.7316 15.32 70.7316 16.168V25H68.9316V22.432L69.1956 22.696C68.9716 23.176 68.6196 23.616 68.1396 24.016C67.6756 24.4 67.1236 24.712 66.4836 24.952C65.8596 25.176 65.1716 25.288 64.4196 25.288ZM79.1196 25.144C77.9676 25.144 77.0796 24.808 76.4556 24.136C75.8316 23.464 75.5196 22.504 75.5196 21.256V13.936H73.1436V12.136H73.7436C74.2876 12.136 74.7196 11.96 75.0396 11.608C75.3596 11.24 75.5196 10.784 75.5196 10.24V9.16H77.3196V12.136H80.1516V13.936H77.3196V21.256C77.3196 21.688 77.3836 22.072 77.5116 22.408C77.6396 22.728 77.8556 22.984 78.1596 23.176C78.4796 23.368 78.9036 23.464 79.4316 23.464C79.5596 23.464 79.7116 23.456 79.8876 23.44C80.0636 23.424 80.2156 23.408 80.3436 23.392V25C80.1516 25.048 79.9356 25.08 79.6956 25.096C79.4556 25.128 79.2636 25.144 79.1196 25.144ZM88.8915 25.288C87.6915 25.288 86.6035 25 85.6275 24.424C84.6675 23.832 83.9075 23.024 83.3475 22C82.7875 20.976 82.5075 19.816 82.5075 18.52C82.5075 17.224 82.7795 16.08 83.3235 15.088C83.8675 14.08 84.6035 13.288 85.5315 12.712C86.4755 12.136 87.5315 11.848 88.6995 11.848C89.6275 11.848 90.4515 12.024 91.1715 12.376C91.9075 12.712 92.5315 13.176 93.0435 13.768C93.5555 14.344 93.9475 15 94.2195 15.736C94.4915 16.456 94.6275 17.2 94.6275 17.968C94.6275 18.128 94.6195 18.312 94.6035 18.52C94.5875 18.712 94.5635 18.912 94.5315 19.12H83.6595V17.44H93.4995L92.6355 18.16C92.7795 17.28 92.6755 16.496 92.3235 15.808C91.9875 15.104 91.4995 14.552 90.8595 14.152C90.2195 13.736 89.4995 13.528 88.6995 13.528C87.8995 13.528 87.1555 13.736 86.4675 14.152C85.7955 14.568 85.2675 15.152 84.8835 15.904C84.4995 16.64 84.3475 17.52 84.4275 18.544C84.3475 19.568 84.5075 20.464 84.9075 21.232C85.3235 21.984 85.8835 22.568 86.5875 22.984C87.3075 23.4 88.0755 23.608 88.8915 23.608C89.8355 23.608 90.6275 23.384 91.2675 22.936C91.9075 22.488 92.4275 21.928 92.8275 21.256L94.3635 22.072C94.1075 22.648 93.7155 23.184 93.1875 23.68C92.6595 24.16 92.0275 24.552 91.2915 24.856C90.5715 25.144 89.7715 25.288 88.8915 25.288ZM100.633 25L96.2171 12.136H98.2571L101.905 23.392H101.185L104.617 12.136H106.417L109.849 23.392H109.129L112.801 12.136H114.817L110.401 25H108.601L105.265 13.984H105.769L102.433 25H100.633ZM120.177 25.288C119.361 25.288 118.633 25.136 117.993 24.832C117.353 24.512 116.849 24.08 116.481 23.536C116.113 22.992 115.929 22.368 115.929 21.664C115.929 20.992 116.073 20.384 116.361 19.84C116.649 19.28 117.097 18.808 117.705 18.424C118.313 18.04 119.089 17.768 120.033 17.608L125.073 16.768V18.4L120.465 19.168C119.537 19.328 118.865 19.624 118.449 20.056C118.049 20.488 117.849 21 117.849 21.592C117.849 22.168 118.073 22.656 118.521 23.056C118.985 23.456 119.577 23.656 120.297 23.656C121.177 23.656 121.945 23.472 122.601 23.104C123.257 22.72 123.769 22.208 124.137 21.568C124.505 20.928 124.689 20.216 124.689 19.432V16.168C124.689 15.4 124.409 14.776 123.849 14.296C123.289 13.816 122.561 13.576 121.665 13.576C120.881 13.576 120.193 13.776 119.601 14.176C119.009 14.56 118.569 15.064 118.281 15.688L116.649 14.8C116.889 14.256 117.265 13.76 117.777 13.312C118.305 12.864 118.905 12.512 119.577 12.256C120.249 11.984 120.945 11.848 121.665 11.848C122.609 11.848 123.441 12.032 124.161 12.4C124.897 12.768 125.465 13.28 125.865 13.936C126.281 14.576 126.489 15.32 126.489 16.168V25H124.689V22.432L124.953 22.696C124.729 23.176 124.377 23.616 123.897 24.016C123.433 24.4 122.881 24.712 122.241 24.952C121.617 25.176 120.929 25.288 120.177 25.288ZM130.456 30.28C130.2 30.28 129.936 30.256 129.664 30.208C129.408 30.176 129.152 30.112 128.896 30.016V28.336C129.056 28.352 129.256 28.376 129.496 28.408C129.752 28.456 130.008 28.48 130.264 28.48C131.048 28.48 131.648 28.312 132.064 27.976C132.48 27.656 132.888 27.032 133.288 26.104L134.104 24.184L134.056 25.768L128.608 12.136H130.552L135.016 23.392H134.512L138.952 12.136H140.944L135.064 26.632C134.808 27.256 134.48 27.848 134.08 28.408C133.696 28.968 133.208 29.416 132.616 29.752C132.024 30.104 131.304 30.28 130.456 30.28Z" fill="#383838"/>
</g>
<defs>
<clipPath id="clip0_1516_3700">
<rect width="142" height="30" fill="white"/>
</clipPath>
</defs>
</svg>
